<svg xmlns="http://www.w3.org/2000/svg" viewBox="0 0 1600 900" fill="none" stroke="#0b5cff" width="1600" height="900"><path d="M530 150v470M590 150v470M650 150v470M710 150v470M770 150v470M830 150v470M890 150v470M950 150v470M1010 150v470M1070 150v470M470 209h660M470 268h660M470 327h660M470 386h660M470 445h660M470 504h660M470 563h660" stroke-opacity=".1" stroke-width="1"/><path d="M490 393L497 387L504 383L511 381L518 381L525 384L532 388L539 390L546 391L553 389L560 385L567 380L574 376L581 374L588 373L595 374L602 375L609 375L616 375L623 374L630 375L637 379L644 388L651 401L658 418L665 435L672 449L679 458L686 460L693 457L700 450L707 443L714 436L721 432L728 430L735 428L742 426L749 420L756 413L763 406L770 401L777 399L784 401L791 406L798 411L805 413L812 409L819 400L826 385L833 368L840 352L847 341L854 335L861 335L868 339L875 346L882 352L889 357L896 362L903 368L910 376L917 388L924 401L931 414L938 424L945 430L952 431L959 427L966 420L973 413L980 409L987 408L994 412L1001 417L1008 423L1015 427L1022 429L1029 429L1036 426L1043 424L1050 422L1057 420L1064 419L1071 417L1078 413L1085 407L1092 400L1099 392L1106 386" stroke-opacity=".62" stroke-width="1.6"/><path d="M490 400L1114 400" stroke-opacity="0.2" stroke-width="1" stroke-dasharray="3 6"/><rect x="492" y="172" width="120" height="7" rx="3" fill="#0b5cff" fill-opacity="0.55" stroke="none"/><rect x="624" y="172" width="54" height="7" rx="3" fill="#0b5cff" fill-opacity="0.30" stroke="none"/><rect x="1036" y="172" width="78" height="7" rx="3" fill="#0b5cff" fill-opacity="0.30" stroke="none"/><rect x="494" y="588" width="9" height="8" rx="2" fill="#0b5cff" fill-opacity="0.16" stroke="none"/><rect x="512" y="548" width="9" height="48" rx="2" fill="#0b5cff" fill-opacity="0.41" stroke="none"/><rect x="530" y="534" width="9" height="62" rx="2" fill="#0b5cff" fill-opacity="0.50" stroke="none"/><rect x="548" y="555" width="9" height="41" rx="2" fill="#0b5cff" fill-opacity="0.37" stroke="none"/><rect x="566" y="578" width="9" height="18" rx="2" fill="#0b5cff" fill-opacity="0.22" stroke="none"/><rect x="584" y="542" width="9" height="54" rx="2" fill="#0b5cff" fill-opacity="0.45" stroke="none"/><rect x="602" y="536" width="9" height="60" rx="2" fill="#0b5cff" fill-opacity="0.49" stroke="none"/><rect x="620" y="563" width="9" height="33" rx="2" fill="#0b5cff" fill-opacity="0.31" stroke="none"/><rect x="638" y="569" width="9" height="27" rx="2" fill="#0b5cff" fill-opacity="0.28" stroke="none"/><rect x="656" y="538" width="9" height="58" rx="2" fill="#0b5cff" fill-opacity="0.48" stroke="none"/><rect x="674" y="539" width="9" height="57" rx="2" fill="#0b5cff" fill-opacity="0.47" stroke="none"/><rect x="692" y="572" width="9" height="24" rx="2" fill="#0b5cff" fill-opacity="0.26" stroke="none"/><rect x="710" y="560" width="9" height="36" rx="2" fill="#0b5cff" fill-opacity="0.33" stroke="none"/><rect x="728" y="535" width="9" height="61" rx="2" fill="#0b5cff" fill-opacity="0.49" stroke="none"/><rect x="746" y="544" width="9" height="52" rx="2" fill="#0b5cff" fill-opacity="0.44" stroke="none"/><rect x="764" y="582" width="9" height="14" rx="2" fill="#0b5cff" fill-opacity="0.20" stroke="none"/><rect x="782" y="553" width="9" height="43" rx="2" fill="#0b5cff" fill-opacity="0.38" stroke="none"/><rect x="800" y="534" width="9" height="62" rx="2" fill="#0b5cff" fill-opacity="0.50" stroke="none"/><rect x="818" y="550" width="9" height="46" rx="2" fill="#0b5cff" fill-opacity="0.40" stroke="none"/><rect x="836" y="585" width="9" height="11" rx="2" fill="#0b5cff" fill-opacity="0.18" stroke="none"/><rect x="854" y="546" width="9" height="50" rx="2" fill="#0b5cff" fill-opacity="0.42" stroke="none"/><rect x="872" y="535" width="9" height="61" rx="2" fill="#0b5cff" fill-opacity="0.50" stroke="none"/><rect x="890" y="558" width="9" height="38" rx="2" fill="#0b5cff" fill-opacity="0.35" stroke="none"/><rect x="908" y="575" width="9" height="21" rx="2" fill="#0b5cff" fill-opacity="0.24" stroke="none"/><rect x="926" y="541" width="9" height="55" rx="2" fill="#0b5cff" fill-opacity="0.46" stroke="none"/><rect x="944" y="537" width="9" height="59" rx="2" fill="#0b5cff" fill-opacity="0.48" stroke="none"/><rect x="962" y="566" width="9" height="30" rx="2" fill="#0b5cff" fill-opacity="0.30" stroke="none"/><rect x="980" y="566" width="9" height="30" rx="2" fill="#0b5cff" fill-opacity="0.30" stroke="none"/><rect x="998" y="537" width="9" height="59" rx="2" fill="#0b5cff" fill-opacity="0.48" stroke="none"/><rect x="1016" y="541" width="9" height="55" rx="2" fill="#0b5cff" fill-opacity="0.46" stroke="none"/><rect x="1034" y="576" width="9" height="20" rx="2" fill="#0b5cff" fill-opacity="0.24" stroke="none"/><rect x="1052" y="558" width="9" height="38" rx="2" fill="#0b5cff" fill-opacity="0.35" stroke="none"/><rect x="1070" y="535" width="9" height="61" rx="2" fill="#0b5cff" fill-opacity="0.50" stroke="none"/><rect x="1088" y="546" width="9" height="50" rx="2" fill="#0b5cff" fill-opacity="0.42" stroke="none"/><rect x="106" y="228" width="60" height="6" rx="3" fill="#0b5cff" fill-opacity="0.44" stroke="none"/><rect x="120" y="248" width="97" height="6" rx="3" fill="#0b5cff" fill-opacity="0.14" stroke="none"/><rect x="227" y="248" width="34" height="6" rx="3" fill="#0b5cff" fill-opacity="0.12" stroke="none"/><rect x="134" y="268" width="134" height="6" rx="3" fill="#0b5cff" fill-opacity="0.14" stroke="none"/><rect x="148" y="288" width="171" height="6" rx="3" fill="#0b5cff" fill-opacity="0.14" stroke="none"/><rect x="106" y="308" width="208" height="6" rx="3" fill="#0b5cff" fill-opacity="0.14" stroke="none"/><rect x="324" y="308" width="34" height="6" rx="3" fill="#0b5cff" fill-opacity="0.12" stroke="none"/><rect x="120" y="328" width="245" height="6" rx="3" fill="#0b5cff" fill-opacity="0.14" stroke="none"/><rect x="134" y="348" width="92" height="6" rx="3" fill="#0b5cff" fill-opacity="0.14" stroke="none"/><rect x="148" y="368" width="129" height="6" rx="3" fill="#0b5cff" fill-opacity="0.44" stroke="none"/><rect x="287" y="368" width="34" height="6" rx="3" fill="#0b5cff" fill-opacity="0.12" stroke="none"/><rect x="106" y="388" width="166" height="6" rx="3" fill="#0b5cff" fill-opacity="0.14" stroke="none"/><rect x="120" y="408" width="203" height="6" rx="3" fill="#0b5cff" fill-opacity="0.14" stroke="none"/><rect x="134" y="428" width="240" height="6" rx="3" fill="#0b5cff" fill-opacity="0.14" stroke="none"/><rect x="384" y="428" width="34" height="6" rx="3" fill="#0b5cff" fill-opacity="0.12" stroke="none"/><rect x="148" y="448" width="87" height="6" rx="3" fill="#0b5cff" fill-opacity="0.14" stroke="none"/><rect x="106" y="468" width="124" height="6" rx="3" fill="#0b5cff" fill-opacity="0.14" stroke="none"/><rect x="120" y="488" width="161" height="6" rx="3" fill="#0b5cff" fill-opacity="0.14" stroke="none"/><rect x="291" y="488" width="34" height="6" rx="3" fill="#0b5cff" fill-opacity="0.12" stroke="none"/><rect x="134" y="508" width="198" height="6" rx="3" fill="#0b5cff" fill-opacity="0.44" stroke="none"/><rect x="148" y="528" width="235" height="6" rx="3" fill="#0b5cff" fill-opacity="0.14" stroke="none"/><rect x="106" y="548" width="82" height="6" rx="3" fill="#0b5cff" fill-opacity="0.14" stroke="none"/><rect x="198" y="548" width="34" height="6" rx="3" fill="#0b5cff" fill-opacity="0.12" stroke="none"/><rect x="120" y="568" width="119" height="6" rx="3" fill="#0b5cff" fill-opacity="0.14" stroke="none"/><path d="M96 228L96 574" stroke-opacity="0.3" stroke-width="1"/><circle cx="1340" cy="300" r="22" stroke-opacity="0.5" stroke-width="1"/><circle cx="1340" cy="300" r="52" stroke-opacity="0.34" stroke-width="1"/><circle cx="1340" cy="300" r="84" stroke-opacity="0.24" stroke-width="1"/><circle cx="1340" cy="300" r="116" stroke-opacity="0.16" stroke-width="1"/><circle cx="1340" cy="300" r="140" stroke-opacity="0.3" stroke-width="1" stroke-dasharray="2 8"/><path d="M1340 300L1480 300M1340 300L1461 370M1340 300L1410 421M1340 300L1340 440M1340 300L1270 421M1340 300L1219 370M1340 300L1200 300M1340 300L1219 230M1340 300L1270 179M1340 300L1340 160M1340 300L1410 179M1340 300L1461 230" stroke-opacity=".1" stroke-width="1"/><path d="M1340 300L1450 214" stroke-opacity=".55" stroke-width="1.6"/><circle cx="1298" cy="258" r="3" fill="#0b5cff" fill-opacity=".55" stroke="none"/><circle cx="1382" cy="332" r="3" fill="#0b5cff" fill-opacity=".55" stroke="none"/><circle cx="1364" cy="246" r="3" fill="#0b5cff" fill-opacity=".55" stroke="none"/><circle cx="1290" cy="344" r="3" fill="#0b5cff" fill-opacity=".55" stroke="none"/><rect x="1186" y="586" width="300" height="5" rx="2" fill="#0b5cff" fill-opacity="0.10" stroke="none"/><rect x="1186" y="586" width="60" height="5" rx="2" fill="#0b5cff" fill-opacity="0.42" stroke="none"/><rect x="1186" y="614" width="300" height="5" rx="2" fill="#0b5cff" fill-opacity="0.10" stroke="none"/><rect x="1186" y="614" width="127" height="5" rx="2" fill="#0b5cff" fill-opacity="0.42" stroke="none"/><rect x="1186" y="642" width="300" height="5" rx="2" fill="#0b5cff" fill-opacity="0.10" stroke="none"/><rect x="1186" y="642" width="194" height="5" rx="2" fill="#0b5cff" fill-opacity="0.42" stroke="none"/><rect x="1186" y="670" width="300" height="5" rx="2" fill="#0b5cff" fill-opacity="0.10" stroke="none"/><rect x="1186" y="670" width="261" height="5" rx="2" fill="#0b5cff" fill-opacity="0.42" stroke="none"/><rect x="1186" y="698" width="300" height="5" rx="2" fill="#0b5cff" fill-opacity="0.10" stroke="none"/><rect x="1186" y="698" width="108" height="5" rx="2" fill="#0b5cff" fill-opacity="0.42" stroke="none"/><rect x="1186" y="726" width="300" height="5" rx="2" fill="#0b5cff" fill-opacity="0.10" stroke="none"/><rect x="1186" y="726" width="175" height="5" rx="2" fill="#0b5cff" fill-opacity="0.42" stroke="none"/><rect x="104" y="732" width="5" height="6" rx="1" fill="#0b5cff" fill-opacity="0.10" stroke="none"/><rect x="126" y="713" width="5" height="25" rx="1" fill="#0b5cff" fill-opacity="0.25" stroke="none"/><rect x="148" y="700" width="5" height="38" rx="1" fill="#0b5cff" fill-opacity="0.34" stroke="none"/><rect x="170" y="699" width="5" height="39" rx="1" fill="#0b5cff" fill-opacity="0.35" stroke="none"/><rect x="192" y="710" width="5" height="28" rx="1" fill="#0b5cff" fill-opacity="0.27" stroke="none"/><rect x="214" y="729" width="5" height="9" rx="1" fill="#0b5cff" fill-opacity="0.12" stroke="none"/><rect x="236" y="715" width="5" height="23" rx="1" fill="#0b5cff" fill-opacity="0.23" stroke="none"/><rect x="258" y="701" width="5" height="37" rx="1" fill="#0b5cff" fill-opacity="0.33" stroke="none"/><rect x="280" y="698" width="5" height="40" rx="1" fill="#0b5cff" fill-opacity="0.36" stroke="none"/><rect x="302" y="708" width="5" height="30" rx="1" fill="#0b5cff" fill-opacity="0.29" stroke="none"/><rect x="324" y="726" width="5" height="12" rx="1" fill="#0b5cff" fill-opacity="0.15" stroke="none"/><rect x="346" y="718" width="5" height="20" rx="1" fill="#0b5cff" fill-opacity="0.21" stroke="none"/><rect x="368" y="703" width="5" height="35" rx="1" fill="#0b5cff" fill-opacity="0.32" stroke="none"/><rect x="390" y="698" width="5" height="40" rx="1" fill="#0b5cff" fill-opacity="0.36" stroke="none"/><rect x="412" y="706" width="5" height="32" rx="1" fill="#0b5cff" fill-opacity="0.30" stroke="none"/><rect x="434" y="723" width="5" height="15" rx="1" fill="#0b5cff" fill-opacity="0.17" stroke="none"/><rect x="456" y="721" width="5" height="17" rx="1" fill="#0b5cff" fill-opacity="0.19" stroke="none"/><rect x="478" y="704" width="5" height="34" rx="1" fill="#0b5cff" fill-opacity="0.31" stroke="none"/><rect x="500" y="698" width="5" height="40" rx="1" fill="#0b5cff" fill-opacity="0.36" stroke="none"/><rect x="522" y="704" width="5" height="34" rx="1" fill="#0b5cff" fill-opacity="0.32" stroke="none"/><rect x="544" y="720" width="5" height="18" rx="1" fill="#0b5cff" fill-opacity="0.19" stroke="none"/><rect x="566" y="724" width="5" height="14" rx="1" fill="#0b5cff" fill-opacity="0.16" stroke="none"/><rect x="588" y="706" width="5" height="32" rx="1" fill="#0b5cff" fill-opacity="0.30" stroke="none"/><rect x="610" y="698" width="5" height="40" rx="1" fill="#0b5cff" fill-opacity="0.36" stroke="none"/><rect x="632" y="702" width="5" height="36" rx="1" fill="#0b5cff" fill-opacity="0.33" stroke="none"/><rect x="654" y="717" width="5" height="21" rx="1" fill="#0b5cff" fill-opacity="0.21" stroke="none"/><rect x="676" y="727" width="5" height="11" rx="1" fill="#0b5cff" fill-opacity="0.14" stroke="none"/><rect x="698" y="709" width="5" height="29" rx="1" fill="#0b5cff" fill-opacity="0.28" stroke="none"/><rect x="720" y="699" width="5" height="39" rx="1" fill="#0b5cff" fill-opacity="0.35" stroke="none"/><rect x="742" y="701" width="5" height="37" rx="1" fill="#0b5cff" fill-opacity="0.34" stroke="none"/><rect x="764" y="714" width="5" height="24" rx="1" fill="#0b5cff" fill-opacity="0.24" stroke="none"/><rect x="786" y="730" width="5" height="8" rx="1" fill="#0b5cff" fill-opacity="0.12" stroke="none"/><rect x="808" y="711" width="5" height="27" rx="1" fill="#0b5cff" fill-opacity="0.26" stroke="none"/><rect x="830" y="699" width="5" height="39" rx="1" fill="#0b5cff" fill-opacity="0.35" stroke="none"/><rect x="852" y="700" width="5" height="38" rx="1" fill="#0b5cff" fill-opacity="0.35" stroke="none"/><rect x="874" y="712" width="5" height="26" rx="1" fill="#0b5cff" fill-opacity="0.26" stroke="none"/><rect x="896" y="731" width="5" height="7" rx="1" fill="#0b5cff" fill-opacity="0.11" stroke="none"/><rect x="918" y="713" width="5" height="25" rx="1" fill="#0b5cff" fill-opacity="0.24" stroke="none"/><rect x="940" y="700" width="5" height="38" rx="1" fill="#0b5cff" fill-opacity="0.34" stroke="none"/><rect x="962" y="699" width="5" height="39" rx="1" fill="#0b5cff" fill-opacity="0.35" stroke="none"/><rect x="984" y="709" width="5" height="29" rx="1" fill="#0b5cff" fill-opacity="0.27" stroke="none"/><rect x="1006" y="728" width="5" height="10" rx="1" fill="#0b5cff" fill-opacity="0.13" stroke="none"/><rect x="1028" y="716" width="5" height="22" rx="1" fill="#0b5cff" fill-opacity="0.22" stroke="none"/><rect x="1050" y="702" width="5" height="36" rx="1" fill="#0b5cff" fill-opacity="0.33" stroke="none"/><rect x="1072" y="698" width="5" height="40" rx="1" fill="#0b5cff" fill-opacity="0.36" stroke="none"/><rect x="1094" y="707" width="5" height="31" rx="1" fill="#0b5cff" fill-opacity="0.29" stroke="none"/><rect x="1116" y="725" width="5" height="13" rx="1" fill="#0b5cff" fill-opacity="0.16" stroke="none"/><rect x="1138" y="719" width="5" height="19" rx="1" fill="#0b5cff" fill-opacity="0.20" stroke="none"/><rect x="1160" y="703" width="5" height="35" rx="1" fill="#0b5cff" fill-opacity="0.32" stroke="none"/><rect x="1182" y="698" width="5" height="40" rx="1" fill="#0b5cff" fill-opacity="0.36" stroke="none"/><rect x="1204" y="705" width="5" height="33" rx="1" fill="#0b5cff" fill-opacity="0.31" stroke="none"/><rect x="1226" y="722" width="5" height="16" rx="1" fill="#0b5cff" fill-opacity="0.18" stroke="none"/><rect x="1248" y="722" width="5" height="16" rx="1" fill="#0b5cff" fill-opacity="0.18" stroke="none"/><rect x="1270" y="705" width="5" height="33" rx="1" fill="#0b5cff" fill-opacity="0.31" stroke="none"/><rect x="1292" y="698" width="5" height="40" rx="1" fill="#0b5cff" fill-opacity="0.36" stroke="none"/><rect x="1314" y="703" width="5" height="35" rx="1" fill="#0b5cff" fill-opacity="0.32" stroke="none"/><rect x="1336" y="719" width="5" height="19" rx="1" fill="#0b5cff" fill-opacity="0.20" stroke="none"/><rect x="1358" y="725" width="5" height="13" rx="1" fill="#0b5cff" fill-opacity="0.15" stroke="none"/><rect x="1380" y="707" width="5" height="31" rx="1" fill="#0b5cff" fill-opacity="0.29" stroke="none"/><rect x="1402" y="698" width="5" height="40" rx="1" fill="#0b5cff" fill-opacity="0.36" stroke="none"/><rect x="1424" y="702" width="5" height="36" rx="1" fill="#0b5cff" fill-opacity="0.33" stroke="none"/><rect x="1446" y="716" width="5" height="22" rx="1" fill="#0b5cff" fill-opacity="0.22" stroke="none"/><rect x="1468" y="728" width="5" height="10" rx="1" fill="#0b5cff" fill-opacity="0.13" stroke="none"/><rect x="1490" y="709" width="5" height="29" rx="1" fill="#0b5cff" fill-opacity="0.27" stroke="none"/><path d="M104 742L1500 742" stroke-opacity="0.24" stroke-width="1"/><circle cx="470" cy="150" r="4" stroke-opacity="0.5" stroke-width="1.2"/><circle cx="1130" cy="150" r="4" stroke-opacity="0.5" stroke-width="1.2"/><circle cx="470" cy="620" r="4" stroke-opacity="0.5" stroke-width="1.2"/><circle cx="1130" cy="620" r="4" stroke-opacity="0.5" stroke-width="1.2"/><circle cx="84" cy="196" r="4" stroke-opacity="0.5" stroke-width="1.2"/><circle cx="436" cy="196" r="4" stroke-opacity="0.5" stroke-width="1.2"/></svg>